<svg width="20" height="23" viewBox="0 0 20 23" fill="none" xmlns="http://www.w3.org/2000/svg">
<path d="M9.71428 0.000108591C10.984 -0.00590891 12.2424 0.238222 13.4178 0.718562C14.5931 1.1989 15.6624 1.90604 16.5644 2.79961C17.4665 3.69318 18.1837 4.75567 18.6751 5.92643C19.1666 7.09718 19.4226 8.35327 19.4286 9.62296C19.4286 14.9373 9.71428 22.8572 9.71428 22.8572C9.71428 22.8572 0 14.9373 0 9.62296C0.00598911 8.35327 0.262009 7.09718 0.753441 5.92643C1.24487 4.75567 1.96209 3.69318 2.86415 2.79961C3.76621 1.90604 4.83544 1.1989 6.01079 0.718562C7.18614 0.238222 8.44459 -0.00590891 9.71428 0.000108591Z" fill="#B9C6FF"/>
</svg>
