<svg t="1639567503677" class="icon" viewBox="0 0 1024 1024" version="1.1" xmlns="http://www.w3.org/2000/svg" p-id="2283"
     data-spm-anchor-id="a313x.7781069.0.i3" width="200" height="200">
  <path
    d="M961.33916 662c-12.3-40.4-38-84.6-74.8-129.6-9.7-11.8-9.7-28.8 0-40.6 73.7-90 102.9-177 69-235.7-25.4-44-82.2-65.2-157.4-65.2-25.2 0-52.4 2.4-81.3 7.1-15 2.5-29.8-6-35.1-20.3C640.63916 68.9 579.83916 0 512.03916 0c-67.8 0-128.6 68.8-169.6 177.6-5.4 14.3-20.1 22.7-35.1 20.3-28.8-4.7-56.1-7.1-81.3-7.1-25.2 0-48.3 2.4-68.9 7.2-17.5-14.5-40.3-22.9-65-21.9C42.03916 178.1 1.53916 219 0.03916 269.2c-1.2 42.4 25.3 79 62.7 92.9 12.3 40.4 38 84.6 74.8 129.6 9.7 11.8 9.7 28.8 0 40.6-73.7 90-102.9 177-69 235.7 25.4 44 82.2 65.2 157.4 65.2 25.2 0 52.4-2.4 81.3-7.1 15-2.5 29.8 6 35.1 20.3C383.43916 955.1 444.23916 1024 512.03916 1024c67.8 0 128.6-68.8 169.6-177.6 5.4-14.3 20.1-22.7 35.1-20.3 28.8 4.7 56.1 7.1 81.3 7.1 25.2 0 48.3-2.4 68.9-7.2 17.5 14.5 40.3 22.9 65 21.9 50.1-2 90.6-42.9 92.1-93.1 1.2-42.4-25.3-79-62.7-92.8zM96.03916 304c-17.7 0-32-14.3-32-32 0-4 0.7-7.8 2.1-11.3 1.2-3.2 2.9-6.2 5.1-8.8C77.03916 244.6 86.03916 240 96.03916 240c17.7 0 32 14.3 32 32s-14.3 32-32 32z m130 465.2c-29.4 0-54.8-4-73.4-11.5-13.8-5.6-23.4-12.9-28.5-21.8-6.5-11.3-7.2-27.5-2.1-48.1 6.9-27.5 23.8-60 48.9-94.1 7.2-9.8 14.9-19.5 23.3-29.3 3-3.5 8.2-3.8 11.6-0.7 23.7 22.2 49.9 44.1 78.2 65.4 7 5.3 11.5 13.1 12.6 21.8 4.3 35.1 10.2 68.8 17.6 100.4 1 4.4-1.9 8.8-6.3 9.7-29.6 5.5-57.1 8.2-81.9 8.2z m62.7-217.6c-3.7-3-7.3-6.1-10.9-9.2-11.8-10.1-23.1-20.3-33.8-30.4 10.7-10.2 22-20.3 33.8-30.4 3.6-3.1 7.2-6.1 10.9-9.1-0.4 13.1-0.7 26.3-0.7 39.6s0.2 26.4 0.7 39.5z m-4.9-156.8c-28.3 21.3-54.4 43.3-78.2 65.4-3.3 3.1-8.6 2.8-11.6-0.7-8.3-9.8-16.1-19.6-23.3-29.3-17.7-24.1-31.3-47.4-40.3-68.6 35.9-13.9 61.5-48.8 61.5-89.6 0-5.1-0.4-10.2-1.2-15.1 10.8-1.4 22.6-2.1 35.2-2.1 24.8 0 52.3 2.8 81.6 8.2 4.5 0.8 7.4 5.2 6.3 9.7-7.3 31.6-13.3 65.2-17.6 100.4-0.9 8.6-5.4 16.4-12.4 21.7zM646.03916 279.9c3.5 14.3 6.6 29.2 9.4 44.5 0.9 4.7 1.7 9.3 2.5 14-11.1-6.9-22.4-13.7-33.9-20.4-11.5-6.7-23-13.1-34.6-19.2 14.3-5.3 28.5-10.2 42.5-14.6 4.7-1.5 9.4-2.9 14.1-4.3zM412.23916 175.6c17-38.8 36.7-69.7 57-89.4C484.63916 71.5 498.93916 64 512.03916 64s27.4 7.5 42.7 22.3c20.3 19.7 40.1 50.6 57 89.4 4.9 11.1 9.5 22.7 13.8 34.8 1.5 4.3-0.8 9-5.2 10.3-27.7 8.4-56.1 18.6-85 30.5a64.17 64.17 0 0 1-47.4 0.4c-23.7-9.2-59.6-23-84.3-30.8-4.3-1.4-6.6-6-5.1-10.3 4.3-12.2 8.9-23.9 13.7-35z m-43.7 148.7c2.8-15.3 6-30.1 9.4-44.5 4.7 1.4 9.4 2.8 14.2 4.3 14 4.4 28.2 9.3 42.5 14.6-11.5 6.1-23 12.5-34.6 19.2-11.5 6.7-22.8 13.4-33.9 20.4 0.7-4.6 1.6-9.3 2.4-14z m9.5 419.8c-3.5-14.3-6.6-29.2-9.4-44.5-0.9-4.6-1.7-9.3-2.5-14 11.1 6.9 22.4 13.7 33.9 20.4 11.5 6.7 23 13 34.6 19.2-14.3 5.3-28.5 10.2-42.5 14.6-4.7 1.5-9.4 2.9-14.1 4.3z m233.8 104.3c-17 38.8-36.7 69.7-57 89.4-15.4 14.7-29.7 22.2-42.8 22.2s-27.4-7.5-42.7-22.3c-20.3-19.7-40.1-50.6-57-89.4-4.9-11.1-9.4-22.7-13.8-34.8-1.5-4.3 0.8-9 5.2-10.3 27.4-8.3 55.5-18.4 84.2-30.1 15.5-6.4 32.9-6.4 48.4 0 28.6 11.7 56.8 21.8 84.1 30.1 4.4 1.3 6.7 6 5.2 10.3-4.4 12.2-9 23.8-13.8 34.9z m43.7-148.8c-2.8 15.3-6 30.1-9.4 44.5-4.7-1.4-9.4-2.8-14.1-4.3-14-4.4-28.2-9.3-42.5-14.6 11.5-6.1 23-12.5 34.6-19.2 11.5-6.7 22.8-13.5 33.9-20.4-0.8 4.7-1.7 9.4-2.5 14z m14-113c-0.7 9.9-5.9 19-14.2 24.5-20.3 13.7-41.5 26.9-63.3 39.5-16.8 9.7-33.8 18.9-50.9 27.6a64.19 64.19 0 0 1-58.2 0c-17.1-8.7-34.1-17.9-50.9-27.6-21.8-12.6-43-25.8-63.3-39.4-8.3-5.6-13.5-14.6-14.2-24.5-1.7-24.5-2.5-49.4-2.5-74.6s0.8-50.1 2.5-74.6c0.7-9.9 5.9-19 14.2-24.5 20.4-13.7 41.5-26.8 63.3-39.4 16.8-9.7 33.8-18.9 50.9-27.6 18.3-9.3 39.9-9.3 58.2 0 17.1 8.7 34.1 17.9 50.9 27.6 21.8 12.6 43 25.8 63.3 39.4 8.3 5.6 13.5 14.6 14.2 24.5 1.7 24.5 2.5 49.4 2.5 74.6s-0.8 50-2.5 74.5zM798.03916 254.8c29.4 0 54.8 4 73.4 11.5 13.8 5.6 23.4 12.9 28.5 21.8 6.5 11.3 7.2 27.5 2.1 48.1-6.9 27.5-23.8 60-48.9 94.1-7.2 9.8-14.9 19.5-23.3 29.3-3 3.5-8.2 3.8-11.6 0.7-23.7-22.2-49.9-44.1-78.2-65.4-7-5.3-11.5-13.1-12.6-21.8-4.3-35.1-10.2-68.8-17.6-100.4-1-4.4 1.9-8.8 6.4-9.7 29.5-5.5 57-8.2 81.8-8.2z m-62.7 217.6c3.7 3 7.3 6.1 10.9 9.1 11.8 10.1 23.1 20.3 33.8 30.4-10.7 10.2-22 20.3-33.8 30.4-3.6 3.1-7.2 6.1-10.9 9.2 0.4-13.1 0.7-26.3 0.7-39.6s-0.2-26.4-0.7-39.5zM832.03916 752c0 5.1 0.4 10.2 1.2 15.1-10.8 1.4-22.6 2.1-35.2 2.1-24.8 0-52.3-2.8-81.6-8.2-4.5-0.8-7.4-5.2-6.3-9.7 7.3-31.6 13.3-65.2 17.6-100.4 1.1-8.7 5.6-16.5 12.6-21.8 28.3-21.3 54.4-43.3 78.2-65.4 3.3-3.1 8.6-2.8 11.6 0.7 8.3 9.8 16.1 19.6 23.3 29.3 17.7 24.1 31.3 47.4 40.3 68.6-36.2 14-61.7 49-61.7 89.7z m125.9 11.4c-1.2 3.2-2.9 6.1-5 8.7C947.03916 779.4 938.03916 784 928.03916 784c-17.7 0-32-14.3-32-32s14.3-32 32-32 32 14.3 32 32c0 4-0.7 7.8-2.1 11.4z"
    p-id="2284" fill="#722ED1" data-spm-anchor-id="a313x.7781069.0.i1" class=""></path>
  <path d="M512.03916 512m-32 0a32 32 0 1 0 64 0 32 32 0 1 0-64 0Z" p-id="2285" fill="#722ED1"></path>
</svg>