<svg t="1639568432408" class="icon" viewBox="0 0 1024 1024" version="1.1" xmlns="http://www.w3.org/2000/svg" p-id="2244" width="200" height="200"><path d="M512.5 923.9c-57.2 0-112.8-10.9-165.1-32.4-50.5-20.8-95.9-50.5-134.9-88.3-39-37.9-69.6-82-91-131.1-22.2-50.9-33.4-104.9-33.4-160.6 0-55.7 11.2-109.8 33.4-160.6 21.4-49.1 52-93.2 91-131.1 39-37.9 84.3-67.6 134.9-88.3C399.8 109.9 455.3 99 512.5 99s112.8 10.9 165.1 32.4c50.5 20.8 95.9 50.5 134.9 88.3 39 37.9 69.6 82 91 131.1 22.2 50.9 33.4 104.9 33.4 160.6 0 55.7-11.2 109.8-33.4 160.6-21.4 49.1-52 93.2-91 131.1-39 37.9-84.3 67.6-134.9 88.3-52.3 21.6-107.8 32.5-165.1 32.5z m0-804.9c-222.9 0-404.3 176.1-404.3 392.5S289.6 904 512.5 904s404.3-176.1 404.3-392.5S735.5 119 512.5 119z" fill="#A400DC" p-id="2245"></path><path d="M721.2 633.5c0 99.8-94.2 77.1-209.2 77.1s-207.2 22.8-207.2-77.1S398 452.7 513 452.7s208.2 80.9 208.2 180.8z" fill="#A400DC" p-id="2246"></path><path d="M420.1 362.5m-64.8 0a64.8 64.8 0 1 0 129.6 0 64.8 64.8 0 1 0-129.6 0Z" fill="#A400DC" p-id="2247"></path><path d="M617.1 362.5m-64.8 0a64.8 64.8 0 1 0 129.6 0 64.8 64.8 0 1 0-129.6 0Z" fill="#A400DC" p-id="2248"></path><path d="M778.4 501.9m-49.2 0a49.2 49.2 0 1 0 98.4 0 49.2 49.2 0 1 0-98.4 0Z" fill="#A400DC" p-id="2249"></path><path d="M255.6 501.9m-49.2 0a49.2 49.2 0 1 0 98.4 0 49.2 49.2 0 1 0-98.4 0Z" fill="#A400DC" p-id="2250"></path></svg>